<svg xmlns="http://www.w3.org/2000/svg" version="1.1" id="Layer_1" viewBox="0 0 740 740" width="740" height="740"><path d="M79.19,41.2c-7.2,19-13.7,46.4-17.7,74.8-2.2,15.9-2.6,79.4-.5,96,4.9,39.5,13.5,73.4,28.8,113.2q1.8,4.6-4.8,18c-8.5,17.1-13,28.4-21.3,54-12.1,37.5-25.7,60.5-55.2,93.5q-6.2,7,.4,15.4c30.7,39,79.4,83.1,127.8,115.6,27.2,18.2,70.4,41.5,99,53.3,49,20.1,99.3,32,135.5,32,32.7-.1,83.6-12,128.8-30.1,17-6.8,55.4-25.8,72.7-36,60.3-35.3,121.2-87,158.4-134.4q7-8.8-2.1-18.9c-16.7-18.5-28.7-35.8-38.6-55.3-6.9-13.7-9.4-20.2-15.7-40.8-5.6-18.1-11.2-31.9-19.8-49.1q-6.5-13-3.1-21.4c31.9-78.8,38.5-169.7,18.4-250-5-19.7-11.4-38-13.4-38-2.5,0-21.1,8.1-34.9,15.3-52.5,27.1-106.7,72.1-145.8,121-4.5,5.6-8.6,10.6-9,11.1-.4.4-7.4-.8-15.6-2.7-29.8-7.1-48-9.1-80.8-9.1s-54.3,2.4-83.8,9.6q-13.1,3.2-16.1-.7c-45.9-57.8-100.8-103.8-157.1-131.8-10.9-5.4-28.3-12.7-30.3-12.7-.6,0-2.4,3.7-4.2,8.2ZM125.09,110.7c17.7,11,48.9,37.7,66.9,57.2,11.7,12.7,28.2,32.4,28.2,33.6,0,.5-3.9,3-8.6,5.5-26.4,13.7-62,42.7-80.6,65.7-2.8,3.4-5.5,6.3-5.9,6.3-2,0-10.2-29.4-13.8-49.7-7.2-40.2-7.4-91.4-.6-117.7.8-3.1,1.5-5.9,1.5-6.1,0-1.7,5,.3,12.9,5.2ZM629.09,108.7c6.2,23.3,7.2,70.4,2.1,106.2-3.3,24.1-13.3,64.1-15.9,64.1-.5,0-1.6-1.1-2.5-2.5s-7.9-8.9-15.4-16.7c-21-21.5-40.7-37.1-64.9-51-6.8-3.9-12.3-7.4-12.3-7.7.1-1.1,13.1-16.6,25.2-29.8,16.3-17.8,37.5-37.3,54-49.7,10.1-7.6,24.7-16.6,26.9-16.6,1.3,0,2.1,1.2,2.8,3.7ZM189.39,361c83.6,7.9,134.7,66,150.9,171.1,1.1,7.3,2.2,13.5,2.4,13.7s3.6-.3,7.6-1.2c12.1-2.8,36.4-2,45.5,1.4,1.3.5,2.4.6,2.4.2s.9-6.4,2-13.4c12.2-79.4,43.3-131.2,93.8-156.3,28.1-14,68.6-19.7,102.2-14.4,9.6,1.5,9.5,1.4,12.9,9.1,3,6.7,4.8,11.8,16.5,48.8,11.7,36.6,29.8,60.6,58.4,77.4q8.2,4.8,3.3,10.5c-8.6,9.9-37.3,37.4-50.7,48.6-38.8,32.3-74.4,55.4-117.8,76.6-48.3,23.5-94.9,37.7-137.5,41.9-37.9,3.8-104.8-14.3-165.9-44.9-40.2-20.1-73-41.6-109.7-72-14.6-12.1-57.5-53.7-57.5-55.8,0-.6,1.4-1.7,3.2-2.4,5.8-2.4,20.3-12.5,27.2-18.9,9.7-9.1,18.7-21.7,26-36.1,6-11.9,8.4-18.7,18.6-51.9,2.3-7.4,5.9-17.2,8-21.6q3.8-8.2,9.1-8.9c17.2-2.4,33.9-2.9,49.1-1.5Z"></path><path d="M209.39,427.6c-15.2,4-27,15.2-31.3,29.7-1.7,5.5-2.1,8.7-1.7,16.6.3,8.9.7,10.5,4.1,17.4,4,8.1,12.5,17,19.7,20.7,30.6,15.6,67-6.4,67-40.5,0-8.2-2.3-17-6.3-23.8-3.1-5.2-12.4-14-17.8-16.8-9.4-4.8-23.3-6.2-33.7-3.3ZM212.99,442.7c10,7.5,9.3,21.2-1.3,26.3-8.4,4.1-16,1.4-20.3-7.3-1.9-3.7-2.2-5.5-1.7-8.7.8-4.7,4.6-9.7,9-11.6,3.9-1.8,11-1.2,14.3,1.3Z"></path><path d="M506.29,427.6c-12.4,3.3-23.6,12.9-29.4,25.1-3.1,6.5-3.2,7.4-3.2,18.9s0,12.1,3.8,19.6c16.9,34.2,65.5,34.2,82.4,0,3.8-7.5,3.8-7.7,3.8-19.6s-.1-12.4-3.2-18.9c-3.8-8-12.2-17.3-19.1-21-10.1-5.5-23.9-7.1-35.1-4.1ZM510.09,442.8c10,7.3,9.1,21.1-1.7,26.3-14,6.8-28-9.7-19-22.4,4.5-6.3,14.8-8.2,20.7-3.9Z"></path><path d="M351.89,556.5c-8.5,1.7-16.5,6-19.5,10.5-1.9,2.8-2.2,4.3-1.7,7.4,1.4,9.3,12.2,22.9,24.3,30.6q7.1,4.5,7.1,12.3c.1,9.6-1.4,12.3-9.1,16.1-11.1,5.5-21.5,1.4-27.3-10.7-2.6-5.6-7.3-6.7-11.7-2.9-5.7,4.8,3.5,20.6,15.7,27,4.3,2.3,6.3,2.7,13.5,2.7,9.8,0,15.7-1.8,22.6-7.1q4.4-3.4,8.8,0c6.9,5.3,12.8,7.1,22.6,7.1,7.2,0,9.3-.4,13.5-2.7,8.7-4.5,17.5-15.9,17.5-22.6,0-4.1-2.9-6.4-7.7-6-3.4.3-4.1.8-6.3,5-3.3,6.1-5.7,8.6-10.4,11-7.9,4-19.8.4-24.6-7.5-1.5-2.3-2-5-2-9.9q0-6.6,5.8-9.8c8.4-4.8,20.5-17.3,24.2-25.1,3.6-7.7,3.7-10.5.7-15-6.5-9.6-34-14.7-56-10.4Z"></path><style>@media (prefers-color-scheme: light) { :root { filter: none; } }
@media (prefers-color-scheme: dark) { :root { filter: invert(100%); } }
</style></svg>